Coordinates
version=1
nRows=21
nColumns=33
inDegrees=yes

Units are S.I. units (second, meters, Newtons, ...)
Angles are in degrees.

endheader
time	ground_thorax_rot_x	ground_thorax_rot_y	ground_thorax_rot_z	ground_thorax_tx	ground_thorax_ty	ground_thorax_tz	clav_prot_r	clav_elev_r	scapula_abduction_r	scapula_elevation_r	scapula_upward_rot_r	scapula_winging_r	shoulder_elv_r	plane_of_elev_r	axial_rot_r	elbow_flexion_r	pro_sup_r	wrist_flex_r	wrist_dev_r	clav_prot_l	clav_elev_l	scapula_abduction_l	scapula_elevation_l	scapula_upward_rot_l	scapula_winging_l	shoulder_elv_l	plane_of_elev_l	axial_rot_l	elbow_flexion_l	pro_sup_l	wrist_flex_l	wrist_dev_l
      2.51000000	      1.49619794	     -0.39023688	     -9.67750938	     -0.06234912	      1.04869609	      0.00188897	    -12.54849369	     -6.01244872	    -10.56422530	     -1.38578818	     10.22898039	     -1.15820053	     61.91748589	    -45.52727375	     60.47463604	     86.49860882	     -3.84587416	     20.32566236	     -2.79439450	     -7.43360060	     -3.51682202	      5.82403173	     -3.74113428	     -0.83704744	     -0.37082064	     58.25003898	    -50.96693028	    -46.69933347	     79.43444809	     -8.66177822	    -11.65998415	    -24.99999983
      2.52000000	      1.61300121	     -0.29633835	     -9.77059553	     -0.06174400	      1.04919494	      0.00178827	    -12.60867171	     -6.38167702	    -10.50982573	     -1.76532531	     10.38125409	     -1.05064719	     61.60480410	    -45.07515892	     59.19905463	     86.72206912	     -4.26761937	     19.53112360	     -2.55189461	     -7.47536923	     -3.84538976	      5.75478962	     -3.38120288	     -0.66613224	     -0.41229339	     58.04323780	    -50.28592417	    -46.09342058	     79.70543534	     -9.37657339	    -11.26706389	    -24.99999983
      2.53000000	      1.58072611	     -0.26523397	     -9.60593335	     -0.06197959	      1.04868173	      0.00179671	    -12.36057565	     -6.21762814	    -10.19248264	     -1.56064782	     10.23046895	     -1.11636200	     60.75280874	    -44.26516138	     57.28130584	     87.10996473	     -5.34951660	     17.13696910	     -1.27179567	     -7.24649036	     -3.63185503	      5.35777957	     -3.55009396	     -0.58428476	     -0.26634792	     57.70739020	    -49.51176534	    -45.30550670	     80.18940363	    -11.34051106	     -9.79849155	    -24.46211412
      2.54000000	      1.61938308	     -0.21484186	     -9.58733185	     -0.06185457	      1.04881336	      0.00173106	    -12.24753032	     -6.40132186	     -9.95317511	     -1.72130151	     10.23804013	     -1.07251385	     60.07806020	    -43.55905032	     55.66428688	     87.07605519	     -6.13430667	     15.70217822	     -0.47500574	     -7.13641678	     -3.76890430	      5.09423889	     -3.39916952	     -0.50150278	     -0.23396381	     57.38519494	    -48.70886313	    -44.44245973	     80.58548413	    -12.68639590	     -8.91748950	    -23.04936975
      2.55000000	      1.66168399	     -0.15234312	     -9.59350894	     -0.06175193	      1.04882246	      0.00160732	    -12.12563857	     -6.59540396	     -9.73332424	     -1.86905504	     10.17730966	     -1.01337134	     59.36997945	    -42.75047910	     54.00917144	     86.90013042	     -6.97168901	     14.22902946	      0.22233027	     -7.03867920	     -3.95631653	      4.85599056	     -3.21771401	     -0.46167326	     -0.22416283	     57.12030924	    -47.81223954	    -43.55952860	     80.96838063	    -13.68080050	     -8.14826497	    -21.45113912
      2.56000000	      1.71026761	     -0.11386072	     -9.51695301	     -0.06176478	      1.04875114	      0.00162108	    -11.94990317	     -6.71877703	     -9.47134455	     -1.92806393	     10.05309290	     -0.96728987	     58.57923092	    -41.81388555	     52.27069801	     86.55789211	     -7.96458411	     12.61568949	      1.07395867	     -6.88907223	     -4.12300042	      4.58152536	     -3.09609224	     -0.52312966	     -0.22829221	     56.83947187	    -46.85468978	    -42.54169929	     81.21973137	    -14.67660852	     -7.24976381	    -19.48311256
      2.57000000	      1.76590385	     -0.08916581	     -9.48067506	     -0.06179281	      1.04874220	      0.00161665	    -11.77456941	     -6.89404754	     -9.20650022	     -2.03358657	      9.90867802	     -0.89992028	     57.77295826	    -40.80721706	     50.55695335	     85.98221417	     -8.97003818	     11.13324816	      1.87646784	     -6.74238533	     -4.36641898	      4.30633006	     -2.91464632	     -0.62420236	     -0.25190916	     56.54802068	    -45.83589049	    -41.43190396	     81.35896826	    -15.58257875	     -6.37378321	    -17.54411644
      2.58000000	      1.82608950	     -0.06637305	     -9.43044111	     -0.06185874	      1.04869960	      0.00160476	    -11.58774112	     -7.07783029	     -8.93870938	     -2.13285573	      9.73298104	     -0.82590646	     56.93249194	    -39.71370262	     48.83577299	     85.18079375	     -9.99768385	      9.70758060	      2.68957182	     -6.58050402	     -4.64615091	      4.01464306	     -2.71683127	     -0.76379016	     -0.29075816	     56.23265196	    -44.76143316	    -40.24077639	     81.33709582	    -16.48405681	     -5.45843197	    -15.55264265
      2.59000000	      1.88416312	     -0.05481599	     -9.38245050	     -0.06197095	      1.04866566	      0.00161141	    -11.39223354	     -7.28501713	     -8.66789756	     -2.24267923	      9.52624879	     -0.73868430	     56.06808695	    -38.53302047	     47.12047573	     84.14503207	    -11.00702289	      8.35656946	      3.50481678	     -6.40597078	     -4.95897146	      3.70578190	     -2.49908985	     -0.92859949	     -0.33989569	     55.88970001	    -43.63290671	    -38.97732384	     81.14426180	    -17.39420583	     -4.50741374	    -13.55718057
      2.60000000	      1.93757316	     -0.05175945	     -9.32889457	     -0.06212543	      1.04862918	      0.00163698	    -11.19280821	     -7.50895763	     -8.40532013	     -2.35637111	      9.28545017	     -0.63833251	     55.19150947	    -37.26552629	     45.41598280	     82.88176610	    -11.97626853	      7.07556850	      4.33347196	     -6.22054618	     -5.29758153	      3.38034624	     -2.26365787	     -1.10866526	     -0.39617818	     55.51547566	    -42.45508266	    -37.65110500	     80.75689068	    -18.32630907	     -3.51086965	    -11.56851893
      2.61000000	      2.00186587	     -0.04652774	     -9.26487863	     -0.06233246	      1.04860376	      0.00168910	    -10.99327892	     -7.74136263	     -8.15430299	     -2.46964128	      9.01977685	     -0.52972312	     54.33134777	    -35.93741813	     43.74471405	     81.40669412	    -12.91429807	      5.87834055	      5.18025406	     -6.01530147	     -5.66313734	      3.02597851	     -2.01258262	     -1.31132876	     -0.45917823	     55.09416657	    -41.21379948	    -36.26105177	     80.14719970	    -19.28884041	     -2.45552922	     -9.59264104
      2.62000000	      2.05953614	     -0.04119738	     -9.20887043	     -0.06259155	      1.04858308	      0.00176002	    -10.80028596	     -7.99937570	     -7.92257483	     -2.59826780	      8.73089766	     -0.40461048	     53.48326570	    -34.53822280	     42.10535934	     79.71503748	    -13.81190939	      4.75691604	      6.04587849	     -5.79320554	     -6.04597678	      2.64100366	     -1.74650913	     -1.51370474	     -0.52172803	     54.64281563	    -39.91028205	    -34.83569330	     79.31028962	    -20.27299539	     -1.34556278	     -7.65785271
      2.63000000	      2.10434236	     -0.03235786	     -9.15484096	     -0.06289250	      1.04859623	      0.00185295	    -10.61598310	     -8.28605864	     -7.71499523	     -2.74472418	      8.41482142	     -0.26090574	     52.66011456	    -33.07302185	     40.52875898	     77.81083844	    -14.66029718	      3.71374195	      6.92604464	     -5.56656001	     -6.44374941	      2.24471130	     -1.46329789	     -1.70730430	     -0.58710683	     54.16384407	    -38.54892944	    -33.38716596	     78.23008844	    -21.26014501	     -0.20229085	     -5.79062154
      2.64000000	      2.15980021	     -0.01723447	     -9.12639443	     -0.06323838	      1.04865978	      0.00195420	    -10.45760261	     -8.61359111	     -7.54251684	     -2.93077446	      8.10553454	     -0.09474463	     51.87591219	    -31.56767293	     38.99576603	     75.70233521	    -15.48066860	      2.75318087	      7.83473016	     -5.32095164	     -6.87732175	      1.81243917	     -1.14924156	     -1.90275744	     -0.65729475	     53.65941668	    -37.11917680	    -31.92604108	     76.90035909	    -22.23434165	      0.98674938	     -3.99009648
      2.65000000	      2.20029533	      0.01553717	     -9.11511256	     -0.06362345	      1.04877325	      0.00207196	    -10.32117604	     -8.98257651	     -7.40686190	     -3.15209635	      7.78722154	      0.09605323	     51.11534224	    -30.01561618	     37.53516898	     73.38924244	    -16.24713798	      1.87424333	      8.76273046	     -5.06723420	     -7.33424817	      1.36324746	     -0.81160279	     -2.09086027	     -0.73308168	     53.16446473	    -35.62716009	    -30.47412416	     75.32355860	    -23.14572522	      2.19105714	     -2.29141626
      2.66000000	      2.23157011	      0.05707403	     -9.11724439	     -0.06405143	      1.04890879	      0.00220739	    -10.20501128	     -9.38746465	     -7.30476569	     -3.40500338	      7.46343064	      0.31041243	     50.38366855	    -28.41319234	     36.14073588	     70.87770000	    -16.94179904	      1.07238923	      9.72648483	     -4.79907544	     -7.80288962	      0.89568369	     -0.46809990	     -2.29117962	     -0.81291729	     52.69268708	    -34.06794714	    -29.04389780	     73.51428725	    -23.95533203	      3.41556877	     -0.70094847
      2.67000000	      2.25942197	      0.10148077	     -9.09899215	     -0.06450814	      1.04903147	      0.00235670	    -10.09967123	     -9.80059966	     -7.23220903	     -3.65917768	      7.11816730	      0.53814852	     49.69272075	    -26.76711785	     34.83579991	     68.19227868	    -17.52419932	      0.35664389	     10.69552035	     -4.52157628	     -8.27346704	      0.43158783	     -0.13784126	     -2.53275103	     -0.90117345	     52.25684525	    -32.44619296	    -27.65267246	     71.48298914	    -24.60511011	      4.63242991	      0.75006165
      2.68000000	      2.26840055	      0.12992819	     -9.11287338	     -0.06502617	      1.04909178	      0.00250602	     -9.98568497	    -10.25051543	     -7.14067097	     -3.94577976	      6.77085549	      0.78074630	     49.06539073	    -25.06294361	     33.65468802	     65.34970703	    -17.95878343	     -0.28021319	     11.64805988	     -4.23649723	     -8.74240567	     -0.03308303	      0.18266930	     -2.79703931	     -0.99313653	     51.90005882	    -30.76280750	    -26.34541879	     69.27440418	    -25.06172468	      5.80922233	      2.02204205
      2.69000000	      2.28223927	      0.16785596	     -8.99477973	     -0.06554666	      1.04913415	      0.00268985	     -9.88584119	    -10.64541610	     -7.11861020	     -4.16115379	      6.35400640	      1.02403933	     48.46302676	    -23.35548069	     32.56927653	     62.38359618	    -18.27258205	     -0.82569010	     12.63638035	     -3.94599984	     -9.17408056	     -0.46022562	      0.43292490	     -3.16298271	     -1.09307213	     51.55815865	    -29.02333621	    -25.05782907	     66.83419844	    -25.32862067	      7.04760092	      3.18481039
      2.70000000	      2.30498240	      0.16124380	     -9.10111572	     -0.06574610	      1.04968686	      0.00289221	     -9.72204145	    -11.48014073	     -6.85674087	     -4.82214777	      6.08909482	      1.42881669	     48.10557181	    -22.20991581	     31.64094839	     59.68333240	    -18.27842504	     -1.30331988	     12.75546050	     -3.77172455	    -10.02956541	     -0.81301115	      1.15217259	     -3.30237212	     -1.36692415	     51.36321069	    -27.73025008	    -24.08702552	     64.34281259	    -25.34960170	      7.25617621	      3.78995046
      2.71000000	      2.30237052	      0.18691390	     -8.72195893	     -0.06664612	      1.04906232	      0.00305391	     -9.62113509	    -11.43269602	     -6.96330809	     -4.58656600	      5.51759580	      1.49578912	     47.40892271	    -19.97218174	     30.73646035	     56.21158588	    -18.51319477	     -1.65835975	     14.41480279	     -3.40513326	    -10.01203631	     -1.20237737	      0.88045302	     -3.98166693	     -1.32092546	     51.00420356	    -25.42552395	    -22.81853259	     61.43909440	    -25.41621638	      9.25926124	      4.91768580
